PathFileType	4	(X/Y/Z)	C:/Users/beibeiliu/ov580/test_trc/User2\sequence.4_training_dense_right.trc
DataRate	CameraRate	NumFrames	NumMarkers	Units	OrigDataRate	OrigDataStartFrame	OrigNumFrames
120	120	24	19	mm	120	25	49
Frame#	Time	ThumbCMC			ThumbMCP			ThumbIP			ThumbTip			IndexMCP			IndexPIP			IndexTip			MiddleMCP			MiddlePIP			MiddleTip			RingMCP			RingPIP			RingTip			PinkyMCP			PinkyPIP			PinkyTip			BackHand1			BackHand2			BackHand3	
		X0	Y0	Z0	X1	Y1	Z1	X2	Y2	Z2	X3	Y3	Z3	X4	Y4	Z4	X5	Y5	Z5	X6	Y6	Z6	X7	Y7	Z7	X8	Y8	Z8	X9	Y9	Z9	X10	Y10	Z10	X11	Y11	Z11	X12	Y12	Z12	X13	Y13	Z13	X14	Y14	Z14	X15	Y15	Z15	X16	Y16	Z16	X17	Y17	Z17	X18	Y18	Z18	
24	0.2	130.497	7.47743	-24.1434	119.612	16.1673	-54.708	110.625	21.037	-88.7314	95.0264	2.37106	-112.249	122.627	-26.5475	-95.717	97.2937	-10.3709	-100.922	99.3596	-0.506682	-65.7711	104.297	-44.0777	-88.0844	78.4458	-18.236	-90.334	90.5034	-7.33875	-50.8794	82.9932	-44.9782	-81.9775	65.5783	-22.3068	-71.0916	84.3197	-17.7844	-42.1896	71.716	-53.9154	-63.8723	61.1925	-22.4038	-53.7299	75.7223	-23.0571	-28.2906	119.052	-62.3924	-27.4733	120.198	-52.7859	11.2724	141.984	-28.5046	-15.7082	
25	0.208333	129.671	21.4098	-23.3127	118.871	25.9567	-54.0542	112.566	23.3816	-84.8613	108.884	2.30646	-107.218	146.982	-11.0287	-91.018	116.255	-9.44904	-101.25	109.964	-0.617867	-66.3899	134.216	-34.8192	-92.3371	100.808	-27.1366	-93.1027	104.609	-10.328	-51.5368	116.79	-49.3631	-82.1535	89.4749	-33.0745	-73.9281	101.495	-21.7634	-45.2835	108.066	-62.0579	-68.6174	83.3713	-42.1182	-59.5669	96.8808	-32.1391	-29.8207	149.749	-50.6502	-23.0984	146.335	-42.8687	9.58805	156.712	-11.8157	-12.221	
26	0.216667	118.862	24.415	-19.0075	110.424	28.6489	-50.136	108.254	28.5846	-85.2746	117.185	9.05159	-108.606	153.998	13.0538	-86.1072	128.392	-0.626889	-100.287	113.883	7.66061	-66.3335	155.947	-11.2481	-87.4794	119.151	-21.2783	-91.3806	113.36	-13.6639	-54.1414	143.357	-32.1977	-85.0322	112.819	-31.1405	-77.5542	117.467	-22.2875	-42.1737	140.128	-52.3674	-71.1282	110.383	-40.8139	-63.0441	115.851	-31.3795	-34.1642	168.325	-24.3525	-23.5425	158.532	-26.1042	10.6058	156.887	10.2367	-5.76417	
27	0.225	98.6698	23.2348	-13.4701	91.5019	26.5428	-47.985	98.4184	28.9139	-86.6718	112.734	17.5445	-107.121	144.375	32.6422	-81.6491	125.431	14.732	-97.8755	108.432	10.398	-63.8291	154.743	13.4727	-83.7598	128.413	-10.574	-92.5248	114.196	-5.92917	-53.3987	158.234	-11.3729	-79.1726	127.414	-23.2309	-80.7981	124.541	-19.2098	-43.5235	160.424	-29.2189	-70.286	129.104	-41.6259	-66.9987	125.25	-25.9434	-34.6469	169.918	0.44462	-19.4138	155.777	-5.84286	17.4643	142.487	25.3443	-3.94541	
28	0.233333	83.8505	16.6442	-13.2768	77.3195	22.5815	-47.7246	80.532	26.9183	-79.5643	99.493	25.51	-103.255	120.743	49.5561	-78.0062	110.314	26.8961	-95.176	97.3208	13.6402	-60.488	138.957	33.6305	-80.1627	121.78	6.60317	-93.0879	108.463	-4.01777	-54.5294	148.644	10.5837	-79.3749	129.187	-12.8335	-82.2874	120.538	-12.2042	-47.3432	158.234	-5.43911	-68.9561	132.503	-26.3521	-69.7585	126.307	-26.0532	-38.4009	154.52	19.2851	-12.7242	145.928	3.10357	19.3017	119.656	32.9499	0.113343	
29	0.241667	70.1024	13.6	-8.693	60.218	18.7593	-42.4681	61.5488	29.0514	-79.2672	85.1453	30.59	-99.0795	102.851	53.5018	-75.1533	95.5945	32.423	-92.7075	86.3564	13.5201	-63.2326	122.35	43.2231	-78.6953	110.359	12.3539	-90.7487	95.5799	0.476041	-54.5458	136.328	23.5682	-75.4293	118.617	-2.99272	-81.9915	109.699	-5.21176	-46.4731	147.068	9.52232	-66.4945	126.416	-17.8759	-70.8872	120.765	-21.7717	-40.46	139.842	29.0493	-11.9408	134.728	10.9361	20.6885	100.653	33.5303	5.28263	
30	0.25	56.7348	15.6733	-9.03663	46.4458	19.1142	-41.7415	48.0644	23.9267	-75.162	65.7911	25.3577	-96.8078	83.0172	53.9017	-73.9412	82.6252	27.9782	-91.4302	74.3182	9.80993	-63.4539	106.8	42.499	-78.2722	96.3829	10.284	-91.1616	87.0648	-2.38392	-54.6607	122.315	24.3345	-78.1315	105.977	-1.92009	-82.8519	101.945	-5.70871	-44.2879	132.536	12.1002	-67.0939	113.577	-13.4108	-70.6083	108.54	-18.1004	-41.1551	127.282	31.0077	-12.1167	121.212	16.5151	17.7974	89.3008	36.1055	5.24132	
31	0.258333	47.9072	10.185	-8.67179	37.5445	10.4591	-44.7612	38.0528	11.2421	-77.0672	56.4571	10.4663	-101.86	76.7578	40.3714	-77.2257	70.4962	11.6975	-93.75	65.1277	-1.14247	-60.2915	97.4508	29.2629	-84.1049	88.1891	-4.29224	-91.3678	74.1746	-11.7518	-51.7302	110.707	11.6458	-80.7155	98.0214	-16.0187	-79.8467	88.2484	-13.047	-46.774	125.838	0.372575	-67.9497	105.6	-24.1169	-68.783	97.5501	-20.9378	-37.554	115.692	28.2376	-16.7865	110.183	18.4708	18.7289	82.7229	33.1266	0.161158	
32	0.266667	37.3139	1.38891	-6.99145	28.2258	-4.1717	-45.1561	28.3293	-7.55679	-79.9296	49.5651	-12.955	-100.992	66.9684	21.5305	-81.6474	58.2143	-11.2245	-92.3183	54.0878	-16.4428	-60.2857	87.832	10.3198	-83.4115	74.8927	-24.7376	-87.9644	68.7395	-26.1903	-47.5788	103.213	-7.31222	-79.2283	88.1382	-34.2818	-76.0937	83.1464	-24.3923	-39.8022	116.792	-15.7623	-65.8772	98.9959	-44.195	-60.9971	91.2805	-28.5544	-30.5495	110.963	18.9615	-18.8477	107.113	11.8041	13.6721	75.5854	27.1929	-6.99643	
33	0.275	32.5472	-7.34019	-7.05072	18.6343	-18.9174	-37.8987	18.8829	-28.6714	-72.7695	39.6137	-35.2735	-97.9901	55.027	-0.388759	-86.5731	49.9785	-31.0304	-89.3373	48.2048	-30.8549	-53.2603	81.4455	-11.6111	-82.0193	66.3066	-45.499	-81.7119	57.6704	-39.9385	-43.3353	93.6843	-31.6685	-77.4602	78.9375	-54.5616	-65.9843	75.8234	-38.7683	-34.714	106.491	-37.7504	-63.7193	86.6771	-59.9541	-50.2398	83.4468	-39.1698	-20.1654	103.174	9.15275	-22.2122	98.5187	7.15552	9.73561	64.5321	17.9212	-7.0116	
34	0.283333	26.1014	-10.7013	-6.20279	9.49378	-24.6986	-36.2656	11.0811	-38.598	-63.9474	27.9774	-50.0478	-90.4198	48.7358	-15.1059	-81.4367	35.9892	-46.426	-79.5943	35.8788	-39.9081	-46.4389	64.1656	-27.3601	-82.8142	53.3902	-58.2228	-73.5263	48.3736	-43.8636	-33.9531	79.502	-43.7162	-71.3716	66.6115	-65.7363	-57.1484	62.2229	-40.5159	-26.794	93.1558	-51.1728	-56.7685	74.0578	-68.3832	-37.2756	72.3522	-43.8191	-15.7387	95.6389	-2.45898	-21.841	90.9517	1.44524	12.2063	59.0304	12.6708	-10.9183	
35	0.291667	17.9354	-9.98452	1.76631	0.395211	-26.6334	-30.7827	-3.66589	-43.923	-58.9296	16.6846	-57.7098	-76.4104	32.1917	-23.4795	-79.8024	27.3063	-51.7794	-73.1043	22.9385	-43.2804	-38.541	53.2839	-38.073	-78.0071	39.5788	-66.4564	-62.3881	39.5971	-48.9665	-25.6122	69.2526	-53.062	-63.2612	48.687	-70.361	-44.4833	53.5283	-44.001	-17.3508	77.7431	-60.7137	-50.4505	60.2935	-71.7447	-29.6582	63.2327	-45.4885	-8.41561	84.6118	-3.99258	-22.3776	84.7386	0.730236	14.9547	54.8781	11.1787	-8.61028	
36	0.3	9.51182	-6.50324	4.09933	-9.81852	-25.5011	-17.5143	-14.9466	-46.1509	-51.1852	0.921255	-62.8981	-66.3128	21.5888	-28.6168	-71.0507	7.98006	-55.647	-61.5903	14.413	-43.489	-28.8911	35.555	-41.8067	-70.329	23.9312	-68.6906	-52.9639	22.1166	-46.9405	-16.5448	51.9646	-57.497	-55.3826	34.404	-72.5002	-32.1166	39.2873	-44.1981	-10.4971	66.8826	-64.3923	-40.6734	44.6017	-72.3952	-12.9506	47.9014	-47.1894	0.335799	74.5548	-9.57439	-19.9342	76.6096	1.12073	10.8046	46.3509	11.7183	-3.58052	
37	0.308333	2.61017	-1.59101	15.0076	-23.2674	-19.6191	-7.4558	-31.977	-43.3246	-38.6992	-17.2008	-63.0875	-53.6494	4.57668	-28.4049	-60.7918	-7.19027	-55.1757	-50.32	-3.69263	-37.4149	-17.3599	20.435	-45.5541	-61.8928	6.30481	-69.8435	-40.2992	11.5183	-45.0465	-7.45234	34.0132	-61.3318	-47.3787	15.6037	-71.8856	-20.6472	22.277	-44.0161	-2.06722	47.1477	-70.1873	-31.4848	27.6627	-71.1676	-3.11562	35.9283	-41.9194	8.2312	66.2563	-12.2963	-17.0002	73.2828	-1.79639	11.9306	38.6858	11.271	-6.19518	
38	0.316667	-1.58869	9.5967	19.3309	-30.5661	-5.48448	-0.405437	-45.8748	-28.5378	-27.7516	-39.8486	-51.824	-40.5236	-11.8721	-27.5026	-54.9997	-28.59	-46.1771	-38.0085	-14.5046	-26.8114	-10.6977	4.99745	-45.6704	-53.2421	-17.7733	-61.8564	-31.4596	-7.01299	-36.0655	0.236949	9.13529	-62.1934	-37.7768	-4.77513	-69.3412	-12.7541	7.23432	-38.429	5.62258	26.4464	-69.6505	-24.1847	8.79319	-70.1937	3.39228	19.9283	-42.0682	14.9287	54.8824	-18.9513	-14.4175	64.6747	-5.07482	12.6047	36.7784	12.3575	-4.44181	
39	0.325	-0.711142	24.2575	18.2653	-30.6155	11.8187	-2.71515	-49.9797	-7.69341	-23.0413	-53.9159	-30.9345	-33.4203	-18.5612	-12.8304	-50.5665	-44.0018	-28.8874	-35.3937	-25.7026	-11.7923	-7.02184	-14.7314	-37.4347	-49.378	-35.8974	-47.3635	-20.8323	-14.6563	-24.0142	4.61514	-9.96714	-58.3491	-29.7832	-25.2574	-53.5207	-4.13134	-2.10778	-27.6101	9.82215	2.40057	-63.8429	-18.2277	-12.1143	-56.6938	11.9272	10.5836	-33.4992	20.2331	47.6982	-27.3136	-13.996	62.9396	-14.1872	15.9326	37.216	12.5743	-5.98326	
40	0.333333	10.3402	35.6703	10.7095	-21.5389	34.1053	-3.6635	-48.9352	21.4947	-23.082	-57.4828	-3.41503	-33.6576	-21.5043	-0.791309	-52.2649	-47.3273	-8.84197	-33.6633	-22.2847	6.47017	-7.93989	-22.0269	-27.4158	-45.0234	-46.9432	-24.3609	-20.8405	-20.0133	-6.14714	6.29985	-21.2691	-44.1982	-25.5928	-38.0753	-32.8082	-0.540154	-9.31458	-16.3977	14.0229	-15.6392	-55.7682	-10.8247	-25.9459	-39.1256	17.5967	1.78079	-24.2526	25.0458	38.0055	-27.8462	-13.635	59.4982	-18.6969	13.5483	40.9964	8.38884	-6.57926	
41	0.341667	25.4094	42.7286	6.23929	-4.53212	54.9342	-9.15611	-34.2101	45.5057	-29.833	-53.7113	25.5346	-39.4972	-18.602	14.4581	-55.6174	-45.2412	17.5843	-36.1783	-21.1479	27.69	-12.1884	-29.8694	-7.07006	-45.5579	-48.9035	1.39965	-17.539	-15.1019	11.4685	5.07508	-34.7803	-22.8302	-24.0652	-44.8166	-6.43628	-2.22852	-7.66397	-0.196133	11.7507	-27.7139	-36.7538	-8.96166	-32.4853	-11.7855	16.6219	-4.37699	-9.8892	25.4718	32.4335	-28.004	-11.2319	50.3859	-21.8741	13.1743	45.8975	10.8553	-9.55181	
42	0.35	39.8739	45.3657	0.511758	16.0473	63.9153	-15.8292	-15.2474	65.8131	-38.707	-39.8377	51.3517	-48.1472	-14.3289	24.9237	-57.4389	-35.2226	37.5894	-42.3702	-10.2726	42.4315	-16.881	-28.6393	9.08706	-45.9049	-44.3809	26.2989	-22.4168	-9.36486	30.4656	1.77347	-33.5969	1.42414	-26.9626	-40.347	20.2004	-2.8447	-6.93427	20.3479	7.96465	-35.3123	-14.1231	-8.47564	-36.1793	10.0014	15.4019	-2.38303	6.15001	23.1809	25.7774	-23.4417	-10.0822	44.9275	-22.698	14.2252	47.9191	8.35693	-13.7352	
43	0.358333	55.187	46.4398	-4.49976	35.0306	64.8959	-23.2019	8.40375	74.2009	-45.0438	-17.0761	68.3503	-53.5509	-0.331212	30.9075	-60.6333	-19.8518	57.1447	-46.9183	4.01706	55.5976	-22.9602	-16.9658	21.9422	-49.0993	-29.6871	50.1184	-29.3534	0.972297	45.5172	-5.09524	-29.7346	17.0478	-30.6155	-29.1518	41.7336	-7.51378	-0.215883	29.2023	6.07777	-36.4001	8.19992	-10.8403	-26.8542	32.7571	9.29633	0.926887	18.7573	18.6517	21.5106	-18.103	-8.99351	41.2303	-21.2877	15.0672	51.1608	2.98975	-9.97194	
44	0.366667	62.535	38.9402	-9.19554	53.253	60.8565	-29.8554	30.271	74.2056	-53.8525	3.0396	74.1143	-64.5779	8.56809	36.861	-69.4271	-3.21644	63.2682	-59.053	18.1553	56.9515	-28.2859	-9.02245	32.4474	-55.7026	-15.9045	60.0603	-35.0588	15.3425	50.2079	-11.9253	-23.5572	33.4201	-34.5629	-15.5065	56.0981	-14.8295	9.5585	37.05	-0.76905	-26.1576	24.8195	-16.9567	-15.5754	47.6125	4.21265	8.66693	29.5813	9.90324	16.7048	-15.2591	-12.2943	38.0171	-18.0144	19.9821	55.2374	0.476223	-11.5606	
45	0.375	73.8747	31.4461	-12.1954	67.9887	51.9898	-39.597	51.0172	66.4283	-67.466	22.4319	68.9641	-79.4486	23.3851	27.8773	-72.9285	15.4222	60.6704	-70.092	35.5461	56.0082	-38.3772	4.63887	31.2553	-64.0925	1.80908	63.1832	-50.5959	27.4177	49.4642	-19.8224	-8.88323	33.5914	-43.9687	-1.40657	60.4658	-26.3864	21.709	39.8371	-8.7956	-20.4737	33.5548	-24.5711	-4.65893	54.9932	-10.3119	15.6919	34.2165	8.44988	21.4622	-11.9648	-12.1047	36.2564	-19.6136	21.3038	60.0376	-4.78709	-15.8276	
46	0.383333	86.1416	24.6138	-15.2667	80.7799	40.853	-42.3141	66.2976	54.1607	-76.0896	43.6813	57.8843	-86.0525	40.9795	19.7752	-80.8224	29.4982	49.8568	-79.0872	47.398	46.8218	-44.8417	17.4846	22.9696	-70.5138	17.8429	57.1988	-59.916	38.8201	44.0644	-28.5735	3.39247	28.8509	-54.1212	11.791	57.007	-39.1979	31.9766	36.117	-17.7289	-11.2379	32.4512	-35.1187	7.97851	54.6804	-16.8361	26.039	33.9518	-4.66593	21.4662	-15.0212	-15.4761	37.2834	-20.6939	16.0754	63.1464	-12.3923	-13.4069	
47	0.391667	92.3821	16.973	-11.2743	93.7393	32.0051	-45.8165	84.1333	41.001	-78.352	57.6843	40.5044	-92.8805	57.205	5.23844	-84.0882	42.5026	35.8588	-86.5137	60.3817	40.0549	-55.7839	28.628	10.9827	-77.1603	30.644	45.8548	-67.3805	52.7432	34.2603	-35.9068	14.2174	16.9163	-61.8895	20.2427	47.2444	-47.7049	40.2597	30.2444	-25.6056	1.35474	20.7072	-45.0978	17.9536	45.4641	-34.1663	35.586	30.2289	-13.2997	32.398	-24.362	-15.0773	47.763	-24.38	17.874	74.474	-18.619	-9.58845	
